M48
; DRILL file {KiCad 8.0.5} date 2024-11-07T23:57:29-0800
; FORMAT={-:-/ absolute / inch / decimal}
; #@! TF.CreationDate,2024-11-07T23:57:29-08:00
; #@! TF.GenerationSoftware,Kicad,Pcbnew,8.0.5
; #@! TF.FileFunction,Plated,1,4,PTH
FMAT,2
INCH
; #@! TA.AperFunction,Plated,PTH,ViaDrill
T1C0.0157
; #@! TA.AperFunction,Plated,PTH,ComponentDrill
T2C0.0197
; #@! TA.AperFunction,Plated,PTH,ComponentDrill
T3C0.0217
; #@! TA.AperFunction,Plated,PTH,ComponentDrill
T4C0.0394
%
G90
G05
T1
X8.6122Y-5.0295
X8.6122Y-5.1772
X8.6122Y-5.2165
X8.6138Y-5.3757
X8.6177Y-6.7045
X8.622Y-6.0795
X8.622Y-6.2173
X8.6394Y-5.5832
X8.6417Y-5.4429
X8.6442Y-5.7325
X8.6865Y-6.4818
X8.6909Y-4.8098
X8.6909Y-7.1031
X8.6927Y-6.7568
X8.7106Y-6.0992
X8.7399Y-5.5823
X8.7402Y-5.4429
X8.7495Y-5.9412
X8.752Y-6.2212
X8.7574Y-5.8418
X8.7697Y-5.2429
X8.7894Y-6.798
X8.7992Y-5.6981
X8.8222Y-6.4118
X8.878Y-5.5381
X8.878Y-6.798
X8.8782Y-6.0207
X8.8955Y-5.8552
X8.9033Y-5.9375
X8.9075Y-5.7744
X8.9114Y-6.4151
X8.9419Y-5.4657
X8.9764Y-6.424
X8.9783Y-5.89
X8.9944Y-5.6003
X8.9961Y-5.764
X9.0059Y-7.1063
X9.0246Y-5.7926
X9.0354Y-6.9003
X9.0502Y-5.2411
X9.0551Y-6.0106
X9.0566Y-5.6034
X9.0846Y-5.735
X9.0866Y-5.4648
X9.0935Y-5.5453
X9.0977Y-6.4109
X9.1235Y-6.2178
X9.1314Y-5.6191
X9.1322Y-5.7354
X9.1339Y-6.3944
X9.1437Y-6.611
X9.1437Y-6.7291
X9.1633Y-5.5314
X9.1634Y-5.794
X9.1732Y-5.877
X9.1774Y-5.735
X9.1831Y-5.9515
X9.1924Y-6.05
X9.2106Y-5.5403
X9.2108Y-5.6466
X9.2209Y-5.9115
X9.2235Y-5.4692
X9.2293Y-6.1385
X9.24Y-6.4043
X9.2421Y-4.8098
X9.252Y-6.846
X9.2698Y-5.6571
X9.2717Y-5.5413
X9.2717Y-6.0883
X9.2717Y-6.9291
X9.3012Y-6.5027
X9.3056Y-5.609
X9.3209Y-5.735
X9.3243Y-6.0598
X9.3661Y-5.4429
X9.3701Y-5.5709
X9.3738Y-5.9454
X9.4094Y-4.8098
X9.4094Y-5.6858
X9.4094Y-6.2173
X9.4528Y-5.4429
X9.4533Y-6.6011
X9.4587Y-5.5709
X9.4795Y-5.7251
X9.4882Y-5.2429
X9.4882Y-6.6799
X9.5177Y-5.4692
X9.5238Y-5.9789
X9.5669Y-4.4259
X9.5698Y-6.26
X9.5768Y-6.2173
X9.5866Y-6.0795
X9.5965Y-6.5003
X9.6191Y-5.7665
X9.626Y-4.4944
X9.626Y-6.2173
X9.6358Y-5.8871
X9.657Y-5.5396
X9.6835Y-4.2389
X9.7146Y-5.8423
X9.7638Y-4.5933
X9.7736Y-5.2506
X9.7756Y-5.8275
X9.778Y-5.545
X9.781Y-6.6331
X9.7835Y-6.087
X9.7835Y-6.5519
X9.7835Y-6.8406
X9.7851Y-5.5976
X9.8228Y-6.3354
X9.8228Y-6.7094
X9.8359Y-5.9547
X9.872Y-5.607
X9.8768Y-5.7251
X9.9213Y-5.7251
X9.9213Y-5.8334
X9.9311Y-6.5913
X9.9582Y-6.2543
X9.96Y-5.6677
X9.9606Y-4.8098
X10.0098Y-6.109
X10.0098Y-6.2005
X10.0394Y-6.0204
X10.0394Y-6.6015
T4
X9.4291Y-6.8472
X9.9803Y-6.7126
X9.9803Y-6.9094
T2
G00X9.1929Y-7.0837
M15
G01X9.1929Y-7.1093
M16
G05
G00X9.4685Y-7.0837
M15
G01X9.4685Y-7.1093
M16
G05
T3
G00X9.2264Y-6.9902
M15
G01X9.2382Y-6.9902
M16
G05
G00X9.4232Y-6.9902
M15
G01X9.435Y-6.9902
M16
G05
M30
